<svg width="23" height="17" viewBox="0 0 23 17" fill="none" xmlns="http://www.w3.org/2000/svg">
<path d="M11.5 2C15.8944 2 19.8795 4.27968 22.82 7.9825C23.06 8.28586 23.06 8.70968 22.82 9.01304C19.8795 12.7203 15.8944 15 11.5 15C7.1056 15 3.12054 12.7203 0.179962 9.0175C-0.059988 8.71414 -0.059988 8.29032 0.179962 7.98696C3.12054 4.27968 7.1056 2 11.5 2ZM11.1848 13.0772C14.1018 13.2512 16.5107 10.9715 16.3272 8.2011C16.1767 5.91695 14.2241 4.06555 11.8152 3.92279C8.89818 3.7488 6.48926 6.02848 6.67275 8.7989C6.82801 11.0786 8.78056 12.93 11.1848 13.0772ZM11.3306 10.9626C12.9021 11.0563 14.2006 9.82944 14.0971 8.3394C14.0171 7.1081 12.9632 6.11325 11.6647 6.03294C10.0932 5.93926 8.79467 7.16609 8.89818 8.65614C8.98287 9.8919 10.0368 10.8868 11.3306 10.9626Z" fill="#EB5757"/>
</svg>
